# xmcd
#
# Track frame offsets:
#	225
#	15345
#	35574
#	57117
#	72123
#	93776
#	120715
#	137732
#	164150
#	184180
#	199268
#	213512
#	231781
#	247773
#
# Disc length: 3435 seconds
#
# Revision: 2
# Processed by: cddbd v1.5.1PL0 Copyright (c) Steve Scherf et al.
# Submitted via: audiograbber 1.81.03
#
DISCID=bf0d680e
DTITLE=Various Artist - Sweet Soul Music
DYEAR=1900
DGENRE=Soul
TTITLE0=Hot Chocolate - Everyone 's A Winner
TTITLE1=The Tempations feat. Kendricks - Masterpiece
TTITLE2=Rose Royce - Car Wash
TTITLE3=George McCrae - Rock Your Baby
TTITLE4=Baccara - Yes Sir, I Can Boogie
TTITLE5=Koll and The Gang - Cherish
TTITLE6=Barry White and His Orchestra and Strings - Relax To The Max
TTITLE7=Sister Sledge - Everybody Dance
TTITLE8=Anita Ward - Ring My Bell
TTITLE9=Al Jarreau - Let's Stay Together
TTITLE10=Shirley Bassey - I Am What I Am
TTITLE11=Marvin Gaye - What's Goin' On
TTITLE12=Shalamar - A Night To Remember
TTITLE13=Sam "The Sham" - Sweet Soul Music
EXTD=
EXTT0=
EXTT1=
EXTT2=
EXTT3=
EXTT4=
EXTT5=
EXTT6=
EXTT7=
EXTT8=
EXTT9=
EXTT10=
EXTT11=
EXTT12=
EXTT13=
PLAYORDER=
